<svg width="512" height="64" viewBox="0 0 512 64" fill="none" xmlns="http://www.w3.org/2000/svg">
<path fill-rule="evenodd" clip-rule="evenodd" d="M20.7198 19.5325C20.4028 19.2683 20.1752 18.9139 20.0684 18.5173C19.9615 18.1207 19.9803 17.7012 20.1222 17.3156C20.2642 16.93 20.5224 16.5969 20.862 16.3616C21.2016 16.1262 21.606 16 22.0204 16H31.98C32.1944 16 32.4 16.0843 32.5514 16.2344C32.703 16.3845 32.7882 16.5881 32.7882 16.8004V29.586L20.7198 19.5325ZM46.8028 16H36.077C35.807 16 35.5478 16.1016 35.3568 16.2825C35.1658 16.4634 35.0586 16.7087 35.0586 16.9645V47.0356C35.0586 47.2914 35.1658 47.5366 35.3568 47.7176C35.5478 47.8984 35.807 48 36.077 48H44.0768C44.347 48 44.606 47.8984 44.797 47.7176C44.988 47.5366 45.0952 47.2914 45.0952 47.0356V30.7822L55.9736 47.5406C56.0646 47.681 56.1922 47.797 56.3442 47.8774C56.496 47.9578 56.6672 48 56.8412 48H67.9212C68.1912 48 68.4504 47.8984 68.6414 47.7176C68.8324 47.5366 68.9396 47.2914 68.9396 47.0356V16.9645C68.9396 16.8378 68.9132 16.7124 68.862 16.5954C68.811 16.4784 68.7358 16.372 68.6414 16.2825C68.5468 16.1929 68.4344 16.1219 68.3108 16.0734C68.1874 16.0249 68.0548 16 67.9212 16H59.679C59.4088 16 59.1498 16.1016 58.9588 16.2825C58.7678 16.4634 58.6604 16.7087 58.6604 16.9645V33.39L47.6704 16.4594C47.5794 16.319 47.4518 16.2031 47.2998 16.1227C47.148 16.0422 46.9768 16 46.8028 16ZM83.9314 45.4828C83.8244 45.0862 83.597 44.7318 83.2798 44.4676L71.2116 34.414V47.1998C71.2116 47.3048 71.2324 47.4088 71.2732 47.506C71.3138 47.6032 71.3732 47.6914 71.4482 47.7656C71.5234 47.84 71.6124 47.899 71.7104 47.9392C71.8086 47.9794 71.9136 48.0002 72.0198 48.0002H81.9794C82.3938 48.0002 82.7982 47.874 83.1378 47.6386C83.4772 47.4032 83.7356 47.0702 83.8774 46.6846C84.0194 46.299 84.0382 45.8794 83.9314 45.4828Z" fill="#52B4E9"/>
<path d="M97.4304 17.4545V32H94.7741L88.446 22.8452H88.3395V32H85.2642V17.4545H87.9631L94.2415 26.6023H94.3693V17.4545H97.4304ZM103.025 32.206C102.329 32.206 101.709 32.0852 101.164 31.8438C100.62 31.5975 100.189 31.2353 99.8718 30.7571C99.5593 30.2741 99.4031 29.6728 99.4031 28.9531C99.4031 28.3471 99.5143 27.8381 99.7369 27.4261C99.9594 27.0142 100.262 26.6828 100.646 26.4318C101.029 26.1809 101.465 25.9915 101.953 25.8636C102.445 25.7358 102.961 25.6458 103.501 25.5938C104.136 25.5275 104.647 25.4659 105.035 25.4091C105.423 25.3475 105.705 25.2576 105.88 25.1392C106.056 25.0208 106.143 24.8456 106.143 24.6136V24.571C106.143 24.1212 106.001 23.7732 105.717 23.527C105.438 23.2808 105.04 23.1577 104.524 23.1577C103.979 23.1577 103.546 23.2784 103.224 23.5199C102.902 23.7566 102.689 24.0549 102.585 24.4148L99.7866 24.1875C99.9286 23.5246 100.208 22.9517 100.625 22.4688C101.041 21.9811 101.579 21.607 102.237 21.3466C102.9 21.0814 103.667 20.9489 104.538 20.9489C105.144 20.9489 105.724 21.0199 106.278 21.1619C106.837 21.304 107.332 21.5241 107.762 21.8224C108.198 22.1207 108.541 22.5043 108.792 22.973C109.043 23.437 109.169 23.9934 109.169 24.642V32H106.299V30.4872H106.214C106.039 30.8281 105.805 31.1288 105.511 31.3892C105.217 31.6449 104.865 31.8461 104.453 31.9929C104.041 32.1349 103.565 32.206 103.025 32.206ZM103.892 30.1179C104.337 30.1179 104.73 30.0303 105.071 29.8551C105.412 29.6752 105.679 29.4337 105.873 29.1307C106.067 28.8277 106.164 28.4844 106.164 28.1009V26.9432C106.07 27.0047 105.94 27.0616 105.774 27.1136C105.613 27.161 105.431 27.206 105.227 27.2486C105.023 27.2865 104.82 27.322 104.616 27.3551C104.413 27.3835 104.228 27.4096 104.062 27.4332C103.707 27.4853 103.397 27.5682 103.132 27.6818C102.867 27.7955 102.661 27.9493 102.514 28.1435C102.367 28.3329 102.294 28.5696 102.294 28.8537C102.294 29.2656 102.443 29.5805 102.741 29.7983C103.044 30.0114 103.428 30.1179 103.892 30.1179ZM114.542 25.6932V32H111.516V21.0909H114.4V23.0156H114.527C114.769 22.3812 115.174 21.8793 115.742 21.5099C116.31 21.1359 116.999 20.9489 117.809 20.9489C118.566 20.9489 119.227 21.1146 119.79 21.446C120.354 21.7775 120.792 22.2509 121.104 22.8665C121.417 23.4773 121.573 24.2064 121.573 25.054V32H118.547V25.5938C118.552 24.9261 118.382 24.4053 118.036 24.0312C117.69 23.6525 117.214 23.4631 116.608 23.4631C116.201 23.4631 115.841 23.5507 115.529 23.7259C115.221 23.901 114.98 24.1567 114.804 24.4929C114.634 24.8243 114.546 25.2244 114.542 25.6932ZM128.886 32.2131C127.783 32.2131 126.829 31.9787 126.024 31.5099C125.224 31.0365 124.606 30.3783 124.17 29.5355C123.735 28.688 123.517 27.7055 123.517 26.5881C123.517 25.4612 123.735 24.4763 124.17 23.6335C124.606 22.786 125.224 22.1278 126.024 21.6591C126.829 21.1856 127.783 20.9489 128.886 20.9489C129.99 20.9489 130.941 21.1856 131.741 21.6591C132.546 22.1278 133.167 22.786 133.602 23.6335C134.038 24.4763 134.256 25.4612 134.256 26.5881C134.256 27.7055 134.038 28.688 133.602 29.5355C133.167 30.3783 132.546 31.0365 131.741 31.5099C130.941 31.9787 129.99 32.2131 128.886 32.2131ZM128.901 29.8693C129.402 29.8693 129.821 29.7273 130.158 29.4432C130.494 29.1544 130.747 28.7614 130.918 28.2642C131.093 27.767 131.18 27.2012 131.18 26.5668C131.18 25.9323 131.093 25.3665 130.918 24.8693C130.747 24.3722 130.494 23.9792 130.158 23.6903C129.821 23.4015 129.402 23.2571 128.901 23.2571C128.394 23.2571 127.968 23.4015 127.622 23.6903C127.281 23.9792 127.023 24.3722 126.848 24.8693C126.678 25.3665 126.592 25.9323 126.592 26.5668C126.592 27.2012 126.678 27.767 126.848 28.2642C127.023 28.7614 127.281 29.1544 127.622 29.4432C127.968 29.7273 128.394 29.8693 128.901 29.8693ZM134.925 19.9901V17.4545H146.871V19.9901H142.418V32H139.378V19.9901H134.925ZM147.649 32V21.0909H150.582V22.9943H150.696C150.895 22.3172 151.228 21.8059 151.697 21.4602C152.166 21.1098 152.706 20.9347 153.316 20.9347C153.468 20.9347 153.631 20.9441 153.806 20.9631C153.982 20.982 154.136 21.008 154.268 21.0412V23.7259C154.126 23.6832 153.93 23.6454 153.679 23.6122C153.428 23.5791 153.198 23.5625 152.99 23.5625C152.545 23.5625 152.147 23.6596 151.797 23.8537C151.451 24.0431 151.176 24.3082 150.973 24.6491C150.774 24.9901 150.674 25.383 150.674 25.8281V32H147.649ZM158.631 32.206C157.935 32.206 157.314 32.0852 156.77 31.8438C156.225 31.5975 155.795 31.2353 155.477 30.7571C155.165 30.2741 155.009 29.6728 155.009 28.9531C155.009 28.3471 155.12 27.8381 155.342 27.4261C155.565 27.0142 155.868 26.6828 156.251 26.4318C156.635 26.1809 157.071 25.9915 157.558 25.8636C158.051 25.7358 158.567 25.6458 159.107 25.5938C159.741 25.5275 160.252 25.4659 160.641 25.4091C161.029 25.3475 161.311 25.2576 161.486 25.1392C161.661 25.0208 161.749 24.8456 161.749 24.6136V24.571C161.749 24.1212 161.607 23.7732 161.322 23.527C161.043 23.2808 160.645 23.1577 160.129 23.1577C159.585 23.1577 159.152 23.2784 158.83 23.5199C158.508 23.7566 158.295 24.0549 158.19 24.4148L155.392 24.1875C155.534 23.5246 155.813 22.9517 156.23 22.4688C156.647 21.9811 157.184 21.607 157.842 21.3466C158.505 21.0814 159.272 20.9489 160.143 20.9489C160.75 20.9489 161.33 21.0199 161.884 21.1619C162.442 21.304 162.937 21.5241 163.368 21.8224C163.804 22.1207 164.147 22.5043 164.398 22.973C164.649 23.437 164.774 23.9934 164.774 24.642V32H161.905V30.4872H161.82C161.644 30.8281 161.41 31.1288 161.116 31.3892C160.823 31.6449 160.47 31.8461 160.058 31.9929C159.646 32.1349 159.17 32.206 158.631 32.206ZM159.497 30.1179C159.942 30.1179 160.335 30.0303 160.676 29.8551C161.017 29.6752 161.285 29.4337 161.479 29.1307C161.673 28.8277 161.77 28.4844 161.77 28.1009V26.9432C161.675 27.0047 161.545 27.0616 161.379 27.1136C161.218 27.161 161.036 27.206 160.832 27.2486C160.629 27.2865 160.425 27.322 160.222 27.3551C160.018 27.3835 159.833 27.4096 159.668 27.4332C159.313 27.4853 159.002 27.5682 158.737 27.6818C158.472 27.7955 158.266 27.9493 158.119 28.1435C157.973 28.3329 157.899 28.5696 157.899 28.8537C157.899 29.2656 158.048 29.5805 158.347 29.7983C158.65 30.0114 159.033 30.1179 159.497 30.1179ZM176.198 24.2017L173.428 24.3722C173.381 24.1354 173.279 23.9223 173.123 23.733C172.967 23.5388 172.761 23.3849 172.505 23.2713C172.254 23.1529 171.953 23.0938 171.603 23.0938C171.134 23.0938 170.739 23.1932 170.417 23.392C170.095 23.5862 169.934 23.8466 169.934 24.1733C169.934 24.4337 170.038 24.6539 170.246 24.8338C170.455 25.0137 170.812 25.1581 171.319 25.267L173.293 25.6648C174.354 25.8826 175.145 26.233 175.665 26.7159C176.186 27.1989 176.447 27.8333 176.447 28.6193C176.447 29.3343 176.236 29.9616 175.815 30.5014C175.398 31.0412 174.825 31.4626 174.096 31.7656C173.371 32.0639 172.536 32.2131 171.589 32.2131C170.145 32.2131 168.994 31.9124 168.137 31.3111C167.285 30.705 166.785 29.8812 166.638 28.8395L169.614 28.6832C169.704 29.1236 169.922 29.4598 170.268 29.6918C170.613 29.919 171.056 30.0327 171.596 30.0327C172.126 30.0327 172.552 29.9309 172.874 29.7273C173.201 29.5189 173.367 29.2514 173.371 28.9247C173.367 28.6501 173.251 28.4252 173.023 28.25C172.796 28.0701 172.446 27.9328 171.972 27.8381L170.083 27.4616C169.018 27.2486 168.225 26.8793 167.704 26.3537C167.188 25.8281 166.93 25.1581 166.93 24.3438C166.93 23.643 167.119 23.0393 167.498 22.5327C167.881 22.026 168.419 21.6354 169.11 21.3608C169.806 21.0862 170.621 20.9489 171.553 20.9489C172.931 20.9489 174.015 21.2401 174.806 21.8224C175.602 22.4048 176.066 23.1979 176.198 24.2017ZM183.324 32.2131C182.201 32.2131 181.235 31.9858 180.426 31.5312C179.621 31.072 179.001 30.4233 178.565 29.5852C178.129 28.7424 177.912 27.7457 177.912 26.5952C177.912 25.473 178.129 24.4882 178.565 23.6406C179.001 22.7931 179.614 22.1326 180.404 21.6591C181.2 21.1856 182.133 20.9489 183.203 20.9489C183.922 20.9489 184.592 21.0649 185.213 21.2969C185.838 21.5241 186.382 21.8674 186.846 22.3267C187.315 22.786 187.68 23.3636 187.94 24.0597C188.2 24.7509 188.331 25.5606 188.331 26.4886V27.3196H179.119V25.4446H185.483C185.483 25.009 185.388 24.6231 185.199 24.2869C185.009 23.9508 184.746 23.688 184.41 23.4986C184.079 23.3045 183.693 23.2074 183.252 23.2074C182.793 23.2074 182.386 23.3139 182.031 23.527C181.681 23.7353 181.406 24.017 181.207 24.3722C181.008 24.7225 180.906 25.1132 180.902 25.544V27.3267C180.902 27.8665 181.001 28.3329 181.2 28.7259C181.404 29.1188 181.69 29.4219 182.059 29.6349C182.429 29.848 182.867 29.9545 183.373 29.9545C183.709 29.9545 184.017 29.9072 184.297 29.8125C184.576 29.7178 184.815 29.5758 185.014 29.3864C185.213 29.197 185.364 28.965 185.468 28.6903L188.267 28.875C188.125 29.5473 187.833 30.1345 187.393 30.6364C186.958 31.1335 186.394 31.5218 185.703 31.8011C185.016 32.0758 184.223 32.2131 183.324 32.2131ZM193.331 25.6932V32H190.305V21.0909H193.189V23.0156H193.316C193.558 22.3812 193.963 21.8793 194.531 21.5099C195.099 21.1359 195.788 20.9489 196.598 20.9489C197.355 20.9489 198.016 21.1146 198.579 21.446C199.143 21.7775 199.581 22.2509 199.893 22.8665C200.206 23.4773 200.362 24.2064 200.362 25.054V32H197.336V25.5938C197.341 24.9261 197.171 24.4053 196.825 24.0312C196.479 23.6525 196.003 23.4631 195.397 23.4631C194.99 23.4631 194.63 23.5507 194.318 23.7259C194.01 23.901 193.769 24.1567 193.593 24.4929C193.423 24.8243 193.335 25.2244 193.331 25.6932ZM207.432 17.4545H211.225L215.23 27.2273H215.401L219.407 17.4545H223.199V32H220.216V22.5327H220.096L216.331 31.929H214.3L210.536 22.4972H210.415V32H207.432V17.4545ZM230.648 32.2131C229.526 32.2131 228.56 31.9858 227.75 31.5312C226.945 31.072 226.325 30.4233 225.889 29.5852C225.454 28.7424 225.236 27.7457 225.236 26.5952C225.236 25.473 225.454 24.4882 225.889 23.6406C226.325 22.7931 226.938 22.1326 227.729 21.6591C228.524 21.1856 229.457 20.9489 230.527 20.9489C231.247 20.9489 231.917 21.0649 232.537 21.2969C233.162 21.5241 233.706 21.8674 234.17 22.3267C234.639 22.786 235.004 23.3636 235.264 24.0597C235.525 24.7509 235.655 25.5606 235.655 26.4886V27.3196H226.443V25.4446H232.807C232.807 25.009 232.712 24.6231 232.523 24.2869C232.333 23.9508 232.071 23.688 231.734 23.4986C231.403 23.3045 231.017 23.2074 230.577 23.2074C230.117 23.2074 229.71 23.3139 229.355 23.527C229.005 23.7353 228.73 24.017 228.531 24.3722C228.332 24.7225 228.231 25.1132 228.226 25.544V27.3267C228.226 27.8665 228.325 28.3329 228.524 28.7259C228.728 29.1188 229.014 29.4219 229.384 29.6349C229.753 29.848 230.191 29.9545 230.697 29.9545C231.034 29.9545 231.341 29.9072 231.621 29.8125C231.9 29.7178 232.139 29.5758 232.338 29.3864C232.537 29.197 232.688 28.965 232.793 28.6903L235.591 28.875C235.449 29.5473 235.158 30.1345 234.717 30.6364C234.282 31.1335 233.718 31.5218 233.027 31.8011C232.34 32.0758 231.547 32.2131 230.648 32.2131ZM241.649 32.1776C240.821 32.1776 240.07 31.9645 239.398 31.5384C238.73 31.1075 238.2 30.4754 237.807 29.642C237.419 28.804 237.224 27.7765 237.224 26.5597C237.224 25.3097 237.426 24.2704 237.828 23.4418C238.231 22.6084 238.766 21.9858 239.433 21.5739C240.106 21.1572 240.842 20.9489 241.642 20.9489C242.253 20.9489 242.762 21.053 243.169 21.2614C243.581 21.465 243.912 21.7206 244.163 22.0284C244.419 22.3314 244.613 22.6297 244.746 22.9233H244.838V17.4545H247.857V32H244.874V30.2528H244.746C244.604 30.5559 244.402 30.8565 244.142 31.1548C243.886 31.4484 243.553 31.6922 243.141 31.8864C242.733 32.0805 242.236 32.1776 241.649 32.1776ZM242.608 29.7699C243.096 29.7699 243.508 29.6373 243.844 29.3722C244.185 29.1023 244.445 28.7259 244.625 28.2429C244.81 27.7599 244.902 27.1941 244.902 26.5455C244.902 25.8968 244.812 25.3333 244.632 24.8551C244.452 24.3769 244.192 24.0076 243.851 23.7472C243.51 23.4867 243.096 23.3565 242.608 23.3565C242.111 23.3565 241.692 23.4915 241.351 23.7614C241.01 24.0312 240.752 24.4053 240.577 24.8835C240.402 25.3617 240.314 25.9157 240.314 26.5455C240.314 27.1799 240.402 27.741 240.577 28.2287C240.757 28.7116 241.015 29.0904 241.351 29.3651C241.692 29.6349 242.111 29.7699 242.608 29.7699ZM250.344 32V21.0909H253.37V32H250.344ZM251.864 19.6847C251.414 19.6847 251.028 19.5355 250.706 19.2372C250.389 18.9342 250.23 18.572 250.23 18.1506C250.23 17.7339 250.389 17.3764 250.706 17.0781C251.028 16.7751 251.414 16.6236 251.864 16.6236C252.314 16.6236 252.697 16.7751 253.015 17.0781C253.337 17.3764 253.498 17.7339 253.498 18.1506C253.498 18.572 253.337 18.9342 253.015 19.2372C252.697 19.5355 252.314 19.6847 251.864 19.6847ZM260.722 32.2131C259.605 32.2131 258.644 31.9763 257.839 31.5028C257.039 31.0246 256.423 30.3617 255.992 29.5142C255.566 28.6667 255.353 27.6913 255.353 26.5881C255.353 25.4706 255.568 24.4905 255.999 23.6477C256.435 22.8002 257.053 22.1397 257.853 21.6662C258.653 21.188 259.605 20.9489 260.708 20.9489C261.66 20.9489 262.493 21.1217 263.208 21.4673C263.923 21.813 264.489 22.2983 264.906 22.9233C265.322 23.5483 265.552 24.2822 265.594 25.125H262.739C262.659 24.5805 262.446 24.1425 262.1 23.8111C261.759 23.4749 261.312 23.3068 260.758 23.3068C260.289 23.3068 259.879 23.4347 259.529 23.6903C259.183 23.9413 258.914 24.3082 258.719 24.7912C258.525 25.2741 258.428 25.8589 258.428 26.5455C258.428 27.2415 258.523 27.8333 258.712 28.321C258.906 28.8087 259.179 29.1804 259.529 29.4361C259.879 29.6918 260.289 29.8196 260.758 29.8196C261.103 29.8196 261.414 29.7486 261.688 29.6065C261.968 29.4645 262.197 29.2585 262.377 28.9886C262.562 28.714 262.683 28.3849 262.739 28.0014H265.594C265.547 28.8348 265.32 29.5687 264.913 30.2031C264.51 30.8329 263.954 31.3253 263.244 31.6804C262.533 32.0355 261.693 32.2131 260.722 32.2131ZM270.642 32.206C269.946 32.206 269.326 32.0852 268.782 31.8438C268.237 31.5975 267.806 31.2353 267.489 30.7571C267.176 30.2741 267.02 29.6728 267.02 28.9531C267.02 28.3471 267.132 27.8381 267.354 27.4261C267.577 27.0142 267.88 26.6828 268.263 26.4318C268.647 26.1809 269.082 25.9915 269.57 25.8636C270.062 25.7358 270.578 25.6458 271.118 25.5938C271.753 25.5275 272.264 25.4659 272.652 25.4091C273.041 25.3475 273.322 25.2576 273.498 25.1392C273.673 25.0208 273.76 24.8456 273.76 24.6136V24.571C273.76 24.1212 273.618 23.7732 273.334 23.527C273.055 23.2808 272.657 23.1577 272.141 23.1577C271.596 23.1577 271.163 23.2784 270.841 23.5199C270.519 23.7566 270.306 24.0549 270.202 24.4148L267.404 24.1875C267.546 23.5246 267.825 22.9517 268.242 22.4688C268.658 21.9811 269.196 21.607 269.854 21.3466C270.517 21.0814 271.284 20.9489 272.155 20.9489C272.761 20.9489 273.341 21.0199 273.895 21.1619C274.454 21.304 274.949 21.5241 275.38 21.8224C275.815 22.1207 276.158 22.5043 276.409 22.973C276.66 23.437 276.786 23.9934 276.786 24.642V32H273.917V30.4872H273.831C273.656 30.8281 273.422 31.1288 273.128 31.3892C272.835 31.6449 272.482 31.8461 272.07 31.9929C271.658 32.1349 271.182 32.206 270.642 32.206ZM271.509 30.1179C271.954 30.1179 272.347 30.0303 272.688 29.8551C273.029 29.6752 273.296 29.4337 273.49 29.1307C273.685 28.8277 273.782 28.4844 273.782 28.1009V26.9432C273.687 27.0047 273.557 27.0616 273.391 27.1136C273.23 27.161 273.048 27.206 272.844 27.2486C272.641 27.2865 272.437 27.322 272.233 27.3551C272.03 27.3835 271.845 27.4096 271.679 27.4332C271.324 27.4853 271.014 27.5682 270.749 27.6818C270.484 27.7955 270.278 27.9493 270.131 28.1435C269.984 28.3329 269.911 28.5696 269.911 28.8537C269.911 29.2656 270.06 29.5805 270.358 29.7983C270.661 30.0114 271.045 30.1179 271.509 30.1179ZM282.159 17.4545V32H279.133V17.4545H282.159ZM294.424 32H289.268V17.4545H294.467C295.93 17.4545 297.19 17.7457 298.245 18.3281C299.301 18.9058 300.113 19.7367 300.681 20.821C301.254 21.9053 301.541 23.2027 301.541 24.7131C301.541 26.2282 301.254 27.5303 300.681 28.6193C300.113 29.7083 299.297 30.544 298.231 31.1264C297.171 31.7088 295.902 32 294.424 32ZM292.343 29.3651H294.297C295.206 29.3651 295.97 29.2041 296.591 28.8821C297.216 28.5554 297.684 28.0511 297.997 27.3693C298.314 26.6828 298.473 25.7973 298.473 24.7131C298.473 23.6383 298.314 22.7599 297.997 22.0781C297.684 21.3963 297.218 20.8944 296.598 20.5724C295.977 20.2505 295.213 20.0895 294.304 20.0895H292.343V29.3651ZM308.691 32.2131C307.588 32.2131 306.634 31.9787 305.829 31.5099C305.029 31.0365 304.411 30.3783 303.975 29.5355C303.54 28.688 303.322 27.7055 303.322 26.5881C303.322 25.4612 303.54 24.4763 303.975 23.6335C304.411 22.786 305.029 22.1278 305.829 21.6591C306.634 21.1856 307.588 20.9489 308.691 20.9489C309.794 20.9489 310.746 21.1856 311.546 21.6591C312.351 22.1278 312.971 22.786 313.407 23.6335C313.843 24.4763 314.06 25.4612 314.06 26.5881C314.06 27.7055 313.843 28.688 313.407 29.5355C312.971 30.3783 312.351 31.0365 311.546 31.5099C310.746 31.9787 309.794 32.2131 308.691 32.2131ZM308.705 29.8693C309.207 29.8693 309.626 29.7273 309.962 29.4432C310.299 29.1544 310.552 28.7614 310.722 28.2642C310.897 27.767 310.985 27.2012 310.985 26.5668C310.985 25.9323 310.897 25.3665 310.722 24.8693C310.552 24.3722 310.299 23.9792 309.962 23.6903C309.626 23.4015 309.207 23.2571 308.705 23.2571C308.199 23.2571 307.772 23.4015 307.427 23.6903C307.086 23.9792 306.828 24.3722 306.653 24.8693C306.482 25.3665 306.397 25.9323 306.397 26.5668C306.397 27.2012 306.482 27.767 306.653 28.2642C306.828 28.7614 307.086 29.1544 307.427 29.4432C307.772 29.7273 308.199 29.8693 308.705 29.8693ZM320.957 32.2131C319.839 32.2131 318.878 31.9763 318.073 31.5028C317.273 31.0246 316.657 30.3617 316.227 29.5142C315.8 28.6667 315.587 27.6913 315.587 26.5881C315.587 25.4706 315.803 24.4905 316.234 23.6477C316.669 22.8002 317.287 22.1397 318.087 21.6662C318.888 21.188 319.839 20.9489 320.942 20.9489C321.894 20.9489 322.728 21.1217 323.442 21.4673C324.157 21.813 324.723 22.2983 325.14 22.9233C325.557 23.5483 325.786 24.2822 325.829 25.125H322.974C322.893 24.5805 322.68 24.1425 322.335 23.8111C321.994 23.4749 321.546 23.3068 320.992 23.3068C320.523 23.3068 320.114 23.4347 319.763 23.6903C319.418 23.9413 319.148 24.3082 318.954 24.7912C318.76 25.2741 318.663 25.8589 318.663 26.5455C318.663 27.2415 318.757 27.8333 318.947 28.321C319.141 28.8087 319.413 29.1804 319.763 29.4361C320.114 29.6918 320.523 29.8196 320.992 29.8196C321.338 29.8196 321.648 29.7486 321.923 29.6065C322.202 29.4645 322.432 29.2585 322.612 28.9886C322.796 28.714 322.917 28.3849 322.974 28.0014H325.829C325.781 28.8348 325.554 29.5687 325.147 30.2031C324.745 30.8329 324.188 31.3253 323.478 31.6804C322.768 32.0355 321.927 32.2131 320.957 32.2131ZM334.762 27.3551V21.0909H337.787V32H334.882V30.0185H334.769C334.523 30.6577 334.113 31.1714 333.54 31.5597C332.972 31.9479 332.278 32.142 331.459 32.142C330.73 32.142 330.088 31.9763 329.534 31.6449C328.98 31.3134 328.547 30.8423 328.235 30.2315C327.927 29.6207 327.771 28.8892 327.766 28.0369V21.0909H330.792V27.4972C330.796 28.1411 330.969 28.6501 331.31 29.0241C331.651 29.3982 332.108 29.5852 332.681 29.5852C333.045 29.5852 333.386 29.5024 333.703 29.3366C334.021 29.1662 334.276 28.9152 334.471 28.5838C334.669 28.2524 334.766 27.8428 334.762 27.3551ZM340.207 32V21.0909H343.091V23.0156H343.219C343.446 22.3764 343.825 21.8722 344.355 21.5028C344.885 21.1335 345.52 20.9489 346.259 20.9489C347.007 20.9489 347.643 21.1359 348.169 21.5099C348.695 21.8793 349.045 22.3812 349.22 23.0156H349.334C349.556 22.3906 349.959 21.8911 350.541 21.517C351.128 21.1383 351.822 20.9489 352.622 20.9489C353.64 20.9489 354.466 21.2732 355.101 21.9219C355.74 22.5658 356.06 23.4796 356.06 24.6634V32H353.041V25.2599C353.041 24.6539 352.88 24.1993 352.558 23.8963C352.236 23.5933 351.834 23.4418 351.351 23.4418C350.802 23.4418 350.373 23.617 350.065 23.9673C349.758 24.313 349.604 24.7699 349.604 25.3381V32H346.67V25.196C346.67 24.661 346.517 24.2348 346.209 23.9176C345.906 23.6004 345.506 23.4418 345.009 23.4418C344.672 23.4418 344.369 23.527 344.099 23.6974C343.834 23.8632 343.624 24.0975 343.467 24.4006C343.311 24.6989 343.233 25.0492 343.233 25.4517V32H340.207ZM363.421 32.2131C362.299 32.2131 361.333 31.9858 360.523 31.5312C359.719 31.072 359.098 30.4233 358.663 29.5852C358.227 28.7424 358.009 27.7457 358.009 26.5952C358.009 25.473 358.227 24.4882 358.663 23.6406C359.098 22.7931 359.711 22.1326 360.502 21.6591C361.298 21.1856 362.23 20.9489 363.3 20.9489C364.02 20.9489 364.69 21.0649 365.31 21.2969C365.935 21.5241 366.48 21.8674 366.944 22.3267C367.413 22.786 367.777 23.3636 368.038 24.0597C368.298 24.7509 368.428 25.5606 368.428 26.4886V27.3196H359.217V25.4446H365.58C365.58 25.009 365.486 24.6231 365.296 24.2869C365.107 23.9508 364.844 23.688 364.508 23.4986C364.176 23.3045 363.79 23.2074 363.35 23.2074C362.891 23.2074 362.484 23.3139 362.129 23.527C361.778 23.7353 361.504 24.017 361.305 24.3722C361.106 24.7225 361.004 25.1132 360.999 25.544V27.3267C360.999 27.8665 361.099 28.3329 361.298 28.7259C361.501 29.1188 361.788 29.4219 362.157 29.6349C362.526 29.848 362.964 29.9545 363.471 29.9545C363.807 29.9545 364.115 29.9072 364.394 29.8125C364.674 29.7178 364.913 29.5758 365.112 29.3864C365.31 29.197 365.462 28.965 365.566 28.6903L368.364 28.875C368.222 29.5473 367.931 30.1345 367.491 30.6364C367.055 31.1335 366.492 31.5218 365.8 31.8011C365.114 32.0758 364.321 32.2131 363.421 32.2131ZM373.428 25.6932V32H370.403V21.0909H373.286V23.0156H373.414C373.656 22.3812 374.06 21.8793 374.629 21.5099C375.197 21.1359 375.886 20.9489 376.695 20.9489C377.453 20.9489 378.113 21.1146 378.677 21.446C379.24 21.7775 379.678 22.2509 379.991 22.8665C380.303 23.4773 380.46 24.2064 380.46 25.054V32H377.434V25.5938C377.439 24.9261 377.268 24.4053 376.923 24.0312C376.577 23.6525 376.101 23.4631 375.495 23.4631C375.088 23.4631 374.728 23.5507 374.415 23.7259C374.108 23.901 373.866 24.1567 373.691 24.4929C373.521 24.8243 373.433 25.2244 373.428 25.6932ZM388.647 21.0909V23.3636H382.077V21.0909H388.647ZM383.569 18.4773H386.594V28.6477C386.594 28.9271 386.637 29.1449 386.722 29.3011C386.807 29.4527 386.926 29.5592 387.077 29.6207C387.233 29.6823 387.413 29.7131 387.617 29.7131C387.759 29.7131 387.901 29.7012 388.043 29.6776C388.185 29.6491 388.294 29.6278 388.37 29.6136L388.846 31.8651C388.694 31.9124 388.481 31.9669 388.206 32.0284C387.932 32.0947 387.598 32.1349 387.205 32.1491C386.476 32.1776 385.837 32.0805 385.287 31.858C384.743 31.6354 384.319 31.2898 384.016 30.821C383.713 30.3523 383.564 29.7604 383.569 29.0455V18.4773Z" fill="#52B4E9"/>
<path d="M108.733 43H107.852C107.8 42.7467 107.709 42.5241 107.579 42.3324C107.451 42.1406 107.295 41.9796 107.11 41.8494C106.928 41.7169 106.725 41.6174 106.503 41.5511C106.28 41.4848 106.048 41.4517 105.807 41.4517C105.366 41.4517 104.968 41.563 104.61 41.7855C104.255 42.008 103.972 42.3359 103.761 42.7692C103.553 43.2024 103.449 43.7339 103.449 44.3636C103.449 44.9934 103.553 45.5249 103.761 45.9581C103.972 46.3913 104.255 46.7192 104.61 46.9418C104.968 47.1643 105.366 47.2756 105.807 47.2756C106.048 47.2756 106.28 47.2424 106.503 47.1761C106.725 47.1098 106.928 47.0116 107.11 46.8814C107.295 46.7488 107.451 46.5866 107.579 46.3949C107.709 46.2008 107.8 45.9782 107.852 45.7273H108.733C108.667 46.099 108.546 46.4316 108.371 46.7251C108.196 47.0187 107.978 47.2685 107.717 47.4744C107.457 47.678 107.165 47.8331 106.84 47.9396C106.518 48.0462 106.174 48.0994 105.807 48.0994C105.187 48.0994 104.635 47.9479 104.152 47.6449C103.669 47.3419 103.289 46.911 103.012 46.3523C102.735 45.7936 102.597 45.1307 102.597 44.3636C102.597 43.5966 102.735 42.9337 103.012 42.375C103.289 41.8163 103.669 41.3854 104.152 41.0824C104.635 40.7794 105.187 40.6278 105.807 40.6278C106.174 40.6278 106.518 40.6811 106.84 40.7876C107.165 40.8942 107.457 41.0504 107.717 41.2564C107.978 41.46 108.196 41.7086 108.371 42.0021C108.546 42.2933 108.667 42.6259 108.733 43ZM116.292 44.3636C116.292 45.1307 116.154 45.7936 115.877 46.3523C115.6 46.911 115.22 47.3419 114.737 47.6449C114.254 47.9479 113.702 48.0994 113.082 48.0994C112.462 48.0994 111.91 47.9479 111.427 47.6449C110.944 47.3419 110.564 46.911 110.287 46.3523C110.01 45.7936 109.872 45.1307 109.872 44.3636C109.872 43.5966 110.01 42.9337 110.287 42.375C110.564 41.8163 110.944 41.3854 111.427 41.0824C111.91 40.7794 112.462 40.6278 113.082 40.6278C113.702 40.6278 114.254 40.7794 114.737 41.0824C115.22 41.3854 115.6 41.8163 115.877 42.375C116.154 42.9337 116.292 43.5966 116.292 44.3636ZM115.44 44.3636C115.44 43.7339 115.335 43.2024 115.124 42.7692C114.916 42.3359 114.633 42.008 114.275 41.7855C113.92 41.563 113.523 41.4517 113.082 41.4517C112.642 41.4517 112.243 41.563 111.885 41.7855C111.53 42.008 111.247 42.3359 111.037 42.7692C110.828 43.2024 110.724 43.7339 110.724 44.3636C110.724 44.9934 110.828 45.5249 111.037 45.9581C111.247 46.3913 111.53 46.7192 111.885 46.9418C112.243 47.1643 112.642 47.2756 113.082 47.2756C113.523 47.2756 113.92 47.1643 114.275 46.9418C114.633 46.7192 114.916 46.3913 115.124 45.9581C115.335 45.5249 115.44 44.9934 115.44 44.3636ZM123.54 40.7273V48H122.688L118.725 42.2898H118.654V48H117.773V40.7273H118.626L122.603 46.4517H122.674V40.7273H123.54ZM125.303 48V40.7273H129.663V41.5085H126.183V43.9659H129.337V44.7472H126.183V48H125.303ZM132.052 40.7273V48H131.172V40.7273H132.052ZM136.062 48H133.818V40.7273H136.162C136.867 40.7273 137.471 40.8729 137.973 41.1641C138.475 41.4529 138.86 41.8684 139.127 42.4105C139.395 42.9503 139.528 43.5966 139.528 44.3494C139.528 45.107 139.393 45.7592 139.124 46.3061C138.854 46.8506 138.461 47.2696 137.945 47.5632C137.429 47.8544 136.801 48 136.062 48ZM134.699 47.2188H136.006C136.607 47.2188 137.105 47.1027 137.501 46.8707C137.896 46.6387 138.191 46.3085 138.385 45.88C138.579 45.4515 138.676 44.9413 138.676 44.3494C138.676 43.7623 138.58 43.2569 138.388 42.8331C138.197 42.407 137.91 42.0803 137.529 41.853C137.148 41.6233 136.673 41.5085 136.105 41.5085H134.699V47.2188ZM141.006 48V40.7273H145.395V41.5085H141.886V43.9659H145.168V44.7472H141.886V47.2188H145.452V48H141.006ZM152.749 40.7273V48H151.897L147.934 42.2898H147.863V48H146.982V40.7273H147.835L151.812 46.4517H151.883V40.7273H152.749ZM154.114 41.5085V40.7273H159.568V41.5085H157.281V48H156.401V41.5085H154.114ZM161.808 40.7273V48H160.928V40.7273H161.808ZM163.872 48H162.949L165.619 40.7273H166.529L169.199 48H168.276L166.102 41.8778H166.046L163.872 48ZM164.213 45.1591H167.935V45.9403H164.213V45.1591ZM170.332 48V40.7273H171.213V47.2188H174.593V48H170.332ZM179.267 45.4574C179.091 45.4574 178.941 45.3946 178.816 45.2692C178.69 45.1437 178.627 44.9934 178.627 44.8182C178.627 44.643 178.69 44.4927 178.816 44.3672C178.941 44.2417 179.091 44.179 179.267 44.179C179.442 44.179 179.592 44.2417 179.718 44.3672C179.843 44.4927 179.906 44.643 179.906 44.8182C179.906 44.9342 179.876 45.0407 179.817 45.1378C179.76 45.2348 179.683 45.313 179.586 45.3722C179.491 45.429 179.385 45.4574 179.267 45.4574ZM190.103 40.7273V48H189.251L185.287 42.2898H185.216V48H184.336V40.7273H185.188L189.165 46.4517H189.236V40.7273H190.103ZM191.467 41.5085V40.7273H196.922V41.5085H194.635V48H193.754V41.5085H191.467ZM201.974 40.7273V48H201.094V40.7273H201.974ZM209.507 40.7273V48H208.655L204.692 42.2898H204.621V48H203.74V40.7273H204.592L208.57 46.4517H208.641V40.7273H209.507ZM210.872 41.5085V40.7273H216.326V41.5085H214.039V48H213.159V41.5085H210.872ZM217.685 48V40.7273H222.075V41.5085H218.566V43.9659H221.847V44.7472H218.566V47.2188H222.131V48H217.685ZM223.662 48V40.7273H226.119C226.688 40.7273 227.154 40.8243 227.518 41.0185C227.883 41.2102 228.153 41.4742 228.328 41.8104C228.503 42.1465 228.591 42.5289 228.591 42.9574C228.591 43.3859 228.503 43.7659 228.328 44.0973C228.153 44.4287 227.884 44.6892 227.522 44.8786C227.16 45.0656 226.697 45.1591 226.134 45.1591H224.145V44.3636H226.105C226.493 44.3636 226.806 44.3068 227.043 44.1932C227.282 44.0795 227.455 43.9186 227.561 43.7102C227.67 43.4995 227.724 43.2486 227.724 42.9574C227.724 42.6662 227.67 42.4117 227.561 42.1939C227.452 41.9761 227.278 41.808 227.039 41.6896C226.8 41.5689 226.484 41.5085 226.091 41.5085H224.543V48H223.662ZM227.085 44.733L228.875 48H227.852L226.091 44.733H227.085ZM235.825 40.7273V48H234.973L231.01 42.2898H230.939V48H230.058V40.7273H230.911L234.888 46.4517H234.959V40.7273H235.825ZM237.886 48H236.963L239.633 40.7273H240.542L243.213 48H242.289L240.116 41.8778H240.059L237.886 48ZM238.227 45.1591H241.949V45.9403H238.227V45.1591ZM244.346 48V40.7273H245.226V47.2188H248.607V48H244.346ZM257.556 40.7273H258.436V45.5426C258.436 46.0398 258.319 46.4837 258.085 46.8743C257.853 47.2625 257.525 47.5691 257.101 47.794C256.677 48.0166 256.18 48.1278 255.61 48.1278C255.039 48.1278 254.542 48.0166 254.118 47.794C253.694 47.5691 253.365 47.2625 253.131 46.8743C252.899 46.4837 252.783 46.0398 252.783 45.5426V40.7273H253.664V45.4716C253.664 45.8267 253.742 46.1428 253.898 46.4197C254.054 46.6944 254.277 46.911 254.566 47.0696C254.857 47.2259 255.205 47.304 255.61 47.304C256.015 47.304 256.363 47.2259 256.654 47.0696C256.945 46.911 257.167 46.6944 257.321 46.4197C257.478 46.1428 257.556 45.8267 257.556 45.4716V40.7273ZM264.172 42.5455C264.13 42.1856 263.957 41.9062 263.654 41.7074C263.351 41.5085 262.979 41.4091 262.539 41.4091C262.217 41.4091 261.935 41.4612 261.694 41.5653C261.455 41.6695 261.268 41.8127 261.133 41.995C261 42.1773 260.934 42.3845 260.934 42.6165C260.934 42.8106 260.98 42.9775 261.072 43.1172C261.167 43.2545 261.288 43.3693 261.434 43.4616C261.581 43.5516 261.735 43.6262 261.896 43.6854C262.057 43.7422 262.205 43.7884 262.34 43.8239L263.079 44.0227C263.268 44.0724 263.479 44.1411 263.711 44.2287C263.945 44.3163 264.169 44.4358 264.382 44.5874C264.597 44.7365 264.775 44.9283 264.915 45.1626C265.054 45.397 265.124 45.6847 265.124 46.0256C265.124 46.4186 265.021 46.7737 264.815 47.0909C264.612 47.4081 264.313 47.6603 263.92 47.8473C263.53 48.0343 263.055 48.1278 262.496 48.1278C261.975 48.1278 261.524 48.0438 261.143 47.8757C260.765 47.7076 260.466 47.4732 260.248 47.1726C260.033 46.8719 259.911 46.5227 259.883 46.125H260.792C260.815 46.3996 260.908 46.6269 261.069 46.8068C261.232 46.9844 261.438 47.117 261.687 47.2045C261.938 47.2898 262.207 47.3324 262.496 47.3324C262.832 47.3324 263.134 47.2779 263.402 47.169C263.669 47.0578 263.881 46.9039 264.037 46.7074C264.194 46.5085 264.272 46.2765 264.272 46.0114C264.272 45.7699 264.204 45.5734 264.069 45.4219C263.934 45.2704 263.757 45.1473 263.537 45.0526C263.317 44.9579 263.079 44.875 262.823 44.804L261.928 44.5483C261.36 44.3849 260.91 44.1518 260.579 43.8487C260.247 43.5457 260.081 43.1491 260.081 42.6591C260.081 42.2519 260.192 41.8968 260.412 41.5938C260.634 41.2884 260.933 41.0516 261.307 40.8835C261.683 40.7131 262.103 40.6278 262.567 40.6278C263.036 40.6278 263.453 40.7119 263.817 40.88C264.182 41.0457 264.471 41.273 264.684 41.5618C264.899 41.8506 265.013 42.1785 265.025 42.5455H264.172ZM266.572 48V40.7273H270.961V41.5085H267.453V43.9659H270.734V44.7472H267.453V47.2188H271.018V48H266.572ZM281.498 44.3636C281.498 45.1307 281.359 45.7936 281.082 46.3523C280.805 46.911 280.425 47.3419 279.942 47.6449C279.459 47.9479 278.908 48.0994 278.287 48.0994C277.667 48.0994 277.115 47.9479 276.632 47.6449C276.15 47.3419 275.77 46.911 275.493 46.3523C275.216 45.7936 275.077 45.1307 275.077 44.3636C275.077 43.5966 275.216 42.9337 275.493 42.375C275.77 41.8163 276.15 41.3854 276.632 41.0824C277.115 40.7794 277.667 40.6278 278.287 40.6278C278.908 40.6278 279.459 40.7794 279.942 41.0824C280.425 41.3854 280.805 41.8163 281.082 42.375C281.359 42.9337 281.498 43.5966 281.498 44.3636ZM280.645 44.3636C280.645 43.7339 280.54 43.2024 280.329 42.7692C280.121 42.3359 279.838 42.008 279.48 41.7855C279.125 41.563 278.728 41.4517 278.287 41.4517C277.847 41.4517 277.448 41.563 277.091 41.7855C276.735 42.008 276.453 42.3359 276.242 42.7692C276.033 43.2024 275.929 43.7339 275.929 44.3636C275.929 44.9934 276.033 45.5249 276.242 45.9581C276.453 46.3913 276.735 46.7192 277.091 46.9418C277.448 47.1643 277.847 47.2756 278.287 47.2756C278.728 47.2756 279.125 47.1643 279.48 46.9418C279.838 46.7192 280.121 46.3913 280.329 45.9581C280.54 45.5249 280.645 44.9934 280.645 44.3636ZM288.745 40.7273V48H287.893L283.93 42.2898H283.859V48H282.978V40.7273H283.831L287.808 46.4517H287.879V40.7273H288.745ZM290.508 48V40.7273H291.388V47.2188H294.769V48H290.508ZM295.166 40.7273H296.174L298.191 44.1222H298.277L300.294 40.7273H301.302L298.674 45.0028V48H297.794V45.0028L295.166 40.7273ZM305.751 45.4574C305.576 45.4574 305.425 45.3946 305.3 45.2692C305.174 45.1437 305.112 44.9934 305.112 44.8182C305.112 44.643 305.174 44.4927 305.3 44.3672C305.425 44.2417 305.576 44.179 305.751 44.179C305.926 44.179 306.076 44.2417 306.202 44.3672C306.327 44.4927 306.39 44.643 306.39 44.8182C306.39 44.9342 306.36 45.0407 306.301 45.1378C306.244 45.2348 306.168 45.313 306.07 45.3722C305.976 45.429 305.869 45.4574 305.751 45.4574ZM313.064 48H310.82V40.7273H313.164C313.869 40.7273 314.473 40.8729 314.975 41.1641C315.477 41.4529 315.862 41.8684 316.129 42.4105C316.397 42.9503 316.53 43.5966 316.53 44.3494C316.53 45.107 316.395 45.7592 316.126 46.3061C315.856 46.8506 315.463 47.2696 314.947 47.5632C314.43 47.8544 313.803 48 313.064 48ZM311.701 47.2188H313.008C313.609 47.2188 314.107 47.1027 314.503 46.8707C314.898 46.6387 315.193 46.3085 315.387 45.88C315.581 45.4515 315.678 44.9413 315.678 44.3494C315.678 43.7623 315.582 43.2569 315.39 42.8331C315.199 42.407 314.912 42.0803 314.531 41.853C314.15 41.6233 313.675 41.5085 313.107 41.5085H311.701V47.2188ZM324.144 44.3636C324.144 45.1307 324.006 45.7936 323.729 46.3523C323.452 46.911 323.072 47.3419 322.589 47.6449C322.106 47.9479 321.554 48.0994 320.934 48.0994C320.314 48.0994 319.762 47.9479 319.279 47.6449C318.796 47.3419 318.416 46.911 318.139 46.3523C317.862 45.7936 317.724 45.1307 317.724 44.3636C317.724 43.5966 317.862 42.9337 318.139 42.375C318.416 41.8163 318.796 41.3854 319.279 41.0824C319.762 40.7794 320.314 40.6278 320.934 40.6278C321.554 40.6278 322.106 40.7794 322.589 41.0824C323.072 41.3854 323.452 41.8163 323.729 42.375C324.006 42.9337 324.144 43.5966 324.144 44.3636ZM323.292 44.3636C323.292 43.7339 323.186 43.2024 322.976 42.7692C322.767 42.3359 322.484 42.008 322.127 41.7855C321.772 41.563 321.374 41.4517 320.934 41.4517C320.493 41.4517 320.095 41.563 319.737 41.7855C319.382 42.008 319.099 42.3359 318.888 42.7692C318.68 43.2024 318.576 43.7339 318.576 44.3636C318.576 44.9934 318.68 45.5249 318.888 45.9581C319.099 46.3913 319.382 46.7192 319.737 46.9418C320.095 47.1643 320.493 47.2756 320.934 47.2756C321.374 47.2756 321.772 47.1643 322.127 46.9418C322.484 46.7192 322.767 46.3913 322.976 45.9581C323.186 45.5249 323.292 44.9934 323.292 44.3636ZM334.204 40.7273V48H333.352L329.389 42.2898H329.318V48H328.437V40.7273H329.29L333.267 46.4517H333.338V40.7273H334.204ZM342.103 44.3636C342.103 45.1307 341.964 45.7936 341.688 46.3523C341.411 46.911 341.031 47.3419 340.548 47.6449C340.065 47.9479 339.513 48.0994 338.893 48.0994C338.272 48.0994 337.721 47.9479 337.238 47.6449C336.755 47.3419 336.375 46.911 336.098 46.3523C335.821 45.7936 335.683 45.1307 335.683 44.3636C335.683 43.5966 335.821 42.9337 336.098 42.375C336.375 41.8163 336.755 41.3854 337.238 41.0824C337.721 40.7794 338.272 40.6278 338.893 40.6278C339.513 40.6278 340.065 40.7794 340.548 41.0824C341.031 41.3854 341.411 41.8163 341.688 42.375C341.964 42.9337 342.103 43.5966 342.103 44.3636ZM341.251 44.3636C341.251 43.7339 341.145 43.2024 340.935 42.7692C340.726 42.3359 340.443 42.008 340.086 41.7855C339.731 41.563 339.333 41.4517 338.893 41.4517C338.452 41.4517 338.054 41.563 337.696 41.7855C337.341 42.008 337.058 42.3359 336.847 42.7692C336.639 43.2024 336.535 43.7339 336.535 44.3636C336.535 44.9934 336.639 45.5249 336.847 45.9581C337.058 46.3913 337.341 46.7192 337.696 46.9418C338.054 47.1643 338.452 47.2756 338.893 47.2756C339.333 47.2756 339.731 47.1643 340.086 46.9418C340.443 46.7192 340.726 46.3913 340.935 45.9581C341.145 45.5249 341.251 44.9934 341.251 44.3636ZM342.883 41.5085V40.7273H348.338V41.5085H346.051V48H345.17V41.5085H342.883ZM354.754 48H352.51V40.7273H354.853C355.559 40.7273 356.163 40.8729 356.664 41.1641C357.166 41.4529 357.551 41.8684 357.819 42.4105C358.086 42.9503 358.22 43.5966 358.22 44.3494C358.22 45.107 358.085 45.7592 357.815 46.3061C357.545 46.8506 357.152 47.2696 356.636 47.5632C356.12 47.8544 355.493 48 354.754 48ZM353.39 47.2188H354.697C355.298 47.2188 355.797 47.1027 356.192 46.8707C356.587 46.6387 356.882 46.3085 357.076 45.88C357.27 45.4515 357.368 44.9413 357.368 44.3494C357.368 43.7623 357.272 43.2569 357.08 42.8331C356.888 42.407 356.602 42.0803 356.221 41.853C355.839 41.6233 355.365 41.5085 354.797 41.5085H353.39V47.2188ZM360.578 40.7273V48H359.697V40.7273H360.578ZM366.321 42.5455C366.278 42.1856 366.105 41.9062 365.802 41.7074C365.499 41.5085 365.128 41.4091 364.687 41.4091C364.365 41.4091 364.084 41.4612 363.842 41.5653C363.603 41.6695 363.416 41.8127 363.281 41.995C363.148 42.1773 363.082 42.3845 363.082 42.6165C363.082 42.8106 363.128 42.9775 363.221 43.1172C363.315 43.2545 363.436 43.3693 363.583 43.4616C363.73 43.5516 363.884 43.6262 364.045 43.6854C364.206 43.7422 364.354 43.7884 364.488 43.8239L365.227 44.0227C365.416 44.0724 365.627 44.1411 365.859 44.2287C366.094 44.3163 366.317 44.4358 366.53 44.5874C366.746 44.7365 366.923 44.9283 367.063 45.1626C367.203 45.397 367.273 45.6847 367.273 46.0256C367.273 46.4186 367.17 46.7737 366.964 47.0909C366.76 47.4081 366.462 47.6603 366.069 47.8473C365.678 48.0343 365.203 48.1278 364.645 48.1278C364.124 48.1278 363.673 48.0438 363.292 47.8757C362.913 47.7076 362.615 47.4732 362.397 47.1726C362.181 46.8719 362.059 46.5227 362.031 46.125H362.94C362.964 46.3996 363.056 46.6269 363.217 46.8068C363.381 46.9844 363.586 47.117 363.835 47.2045C364.086 47.2898 364.356 47.3324 364.645 47.3324C364.981 47.3324 365.283 47.2779 365.55 47.169C365.818 47.0578 366.03 46.9039 366.186 46.7074C366.342 46.5085 366.42 46.2765 366.42 46.0114C366.42 45.7699 366.353 45.5734 366.218 45.4219C366.083 45.2704 365.905 45.1473 365.685 45.0526C365.465 44.9579 365.227 44.875 364.971 44.804L364.077 44.5483C363.508 44.3849 363.059 44.1518 362.727 43.8487C362.396 43.5457 362.23 43.1491 362.23 42.6591C362.23 42.2519 362.34 41.8968 362.56 41.5938C362.783 41.2884 363.081 41.0516 363.455 40.8835C363.831 40.7131 364.252 40.6278 364.716 40.6278C365.184 40.6278 365.601 40.7119 365.966 40.88C366.33 41.0457 366.619 41.273 366.832 41.5618C367.048 41.8506 367.161 42.1785 367.173 42.5455H366.321ZM368.323 41.5085V40.7273H373.777V41.5085H371.49V48H370.61V41.5085H368.323ZM375.137 48V40.7273H377.594C378.162 40.7273 378.628 40.8243 378.993 41.0185C379.358 41.2102 379.628 41.4742 379.803 41.8104C379.978 42.1465 380.066 42.5289 380.066 42.9574C380.066 43.3859 379.978 43.7659 379.803 44.0973C379.628 44.4287 379.359 44.6892 378.997 44.8786C378.634 45.0656 378.172 45.1591 377.608 45.1591H375.619V44.3636H377.58C377.968 44.3636 378.28 44.3068 378.517 44.1932C378.756 44.0795 378.929 43.9186 379.036 43.7102C379.145 43.4995 379.199 43.2486 379.199 42.9574C379.199 42.6662 379.145 42.4117 379.036 42.1939C378.927 41.9761 378.753 41.808 378.514 41.6896C378.275 41.5689 377.959 41.5085 377.566 41.5085H376.017V48H375.137ZM378.56 44.733L380.35 48H379.327L377.566 44.733H378.56ZM382.414 40.7273V48H381.533V40.7273H382.414ZM384.18 48V40.7273H386.722C387.229 40.7273 387.647 40.8149 387.976 40.9901C388.305 41.1629 388.55 41.3961 388.711 41.6896C388.872 41.9808 388.952 42.304 388.952 42.6591C388.952 42.9716 388.897 43.2296 388.785 43.4332C388.676 43.6368 388.532 43.7978 388.352 43.9162C388.175 44.0346 387.982 44.1222 387.773 44.179V44.25C387.996 44.2642 388.22 44.3423 388.444 44.4844C388.669 44.6264 388.858 44.83 389.009 45.0952C389.161 45.3603 389.236 45.6847 389.236 46.0682C389.236 46.4328 389.153 46.7607 388.988 47.0518C388.822 47.343 388.56 47.5739 388.203 47.7443C387.845 47.9148 387.38 48 386.807 48H384.18ZM385.06 47.2188H386.807C387.383 47.2188 387.791 47.1075 388.032 46.8849C388.276 46.66 388.398 46.3878 388.398 46.0682C388.398 45.822 388.336 45.5947 388.21 45.3864C388.085 45.1757 387.906 45.0076 387.674 44.8821C387.442 44.7543 387.167 44.6903 386.85 44.6903H385.06V47.2188ZM385.06 43.9233H386.694C386.959 43.9233 387.198 43.8712 387.411 43.767C387.626 43.6629 387.797 43.5161 387.922 43.3267C388.05 43.1373 388.114 42.9148 388.114 42.6591C388.114 42.3395 388.003 42.0684 387.78 41.8459C387.558 41.621 387.205 41.5085 386.722 41.5085H385.06V43.9233ZM395.456 40.7273H396.337V45.5426C396.337 46.0398 396.22 46.4837 395.985 46.8743C395.753 47.2625 395.425 47.5691 395.002 47.794C394.578 48.0166 394.081 48.1278 393.51 48.1278C392.94 48.1278 392.442 48.0166 392.019 47.794C391.595 47.5691 391.266 47.2625 391.031 46.8743C390.799 46.4837 390.683 46.0398 390.683 45.5426V40.7273H391.564V45.4716C391.564 45.8267 391.642 46.1428 391.798 46.4197C391.955 46.6944 392.177 46.911 392.466 47.0696C392.757 47.2259 393.105 47.304 393.51 47.304C393.915 47.304 394.263 47.2259 394.554 47.0696C394.845 46.911 395.068 46.6944 395.222 46.4197C395.378 46.1428 395.456 45.8267 395.456 45.4716V40.7273ZM397.698 41.5085V40.7273H403.152V41.5085H400.865V48H399.985V41.5085H397.698ZM404.512 48V40.7273H408.901V41.5085H405.392V43.9659H408.673V44.7472H405.392V47.2188H408.958V48H404.512Z" fill="#848484"/>
</svg>
